<?xml version="1.0" encoding="iso-8859-1"?>
<!-- Generator: Adobe Illustrator 19.0.0, SVG Export Plug-In . SVG Version: 6.00 Build 0)  -->
<svg xmlns="http://www.w3.org/2000/svg" xmlns:xlink="http://www.w3.org/1999/xlink" version="1.1" id="Capa_1" x="0px" y="0px" viewBox="0 0 512 512" style="enable-background:new 0 0 512 512;" xml:space="preserve" width="512px" height="512px">
<g>
	<g>
		<g>
			<path d="M192,314.184v-35.327h-12.695L20.254,388.571h81.077C106.778,354.883,142.117,327.132,192,314.184z" fill="#FFFFFF"/>
			<path d="M301.714,406.857h-18.286v18.286h18.286c5.049,0,9.143-4.093,9.143-9.143S306.764,406.857,301.714,406.857z" fill="#FFFFFF"/>
			<path d="M0,278.857v100.571c0,0.28,0.135,0.515,0.16,0.788l146.938-101.359H0z" fill="#FFFFFF"/>
			<path d="M0.16,49.498C0.135,49.771,0,50.006,0,50.286v100.571h147.098L0.16,49.498z" fill="#FFFFFF"/>
			<polygon points="192,150.857 192,41.143 20.251,41.143 179.301,150.857    " fill="#FFFFFF"/>
			<polygon points="491.749,41.143 320,41.143 320,150.857 332.699,150.857    " fill="#FFFFFF"/>
			<path d="M301.714,370.286h-18.286v18.286h18.286c5.049,0,9.143-4.093,9.143-9.143S306.764,370.286,301.714,370.286z" fill="#FFFFFF"/>
			<path d="M511.84,380.217c0.025-0.273,0.16-0.508,0.16-0.788V278.857H364.902L511.84,380.217z" fill="#FFFFFF"/>
			<path d="M301.714,160V41.143h-91.429V160c0,5.049-4.093,9.143-9.143,9.143H0v91.429h201.143c5.049,0,9.143,4.093,9.143,9.143     v40.469c30.255-5.196,61.174-5.196,91.429,0v-40.469c0-5.049,4.093-9.143,9.143-9.143H512v-91.429H310.857     C305.808,169.143,301.714,165.049,301.714,160z" fill="#FFFFFF"/>
			<path d="M320,278.857v35.327c49.883,12.948,85.222,40.699,90.669,74.387h81.077l-159.05-109.714H320z" fill="#FFFFFF"/>
			<path d="M256,324.571c-74.339,0-137.143,33.496-137.143,73.143S181.661,470.857,256,470.857s137.143-33.496,137.143-73.143     S330.339,324.571,256,324.571z M210.286,425.143h18.286v-18.286h-9.143c-5.049,0-9.143-4.093-9.143-9.143     s4.093-9.143,9.143-9.143h18.286c5.049,0,9.143,4.093,9.143,9.143v36.571c0,5.049-4.093,9.143-9.143,9.143h-27.429     c-15.142-0.017-27.412-12.287-27.429-27.429v-36.571c0.016-15.142,12.287-27.412,27.429-27.429h27.429     c5.049,0,9.143,4.093,9.143,9.143c0,5.049-4.093,9.143-9.143,9.143h-27.429c-5.047,0.007-9.136,4.096-9.143,9.143V416     C201.149,421.047,205.239,425.136,210.286,425.143z M301.714,443.429h-27.429c-5.049,0-9.143-4.093-9.143-9.143v-73.143     c0-5.049,4.093-9.143,9.143-9.143h27.429c10.84-0.047,20.681,6.321,25.08,16.228c4.398,9.907,2.521,21.478-4.785,29.486     c4.569,4.996,7.113,11.515,7.134,18.286C329.126,431.142,316.856,443.412,301.714,443.429z" fill="#FFFFFF"/>
			<path d="M511.84,49.498L364.902,150.857H512V50.286C512,50.006,511.865,49.771,511.84,49.498z" fill="#FFFFFF"/>
		</g>
	</g>
</g>
<g>
</g>
<g>
</g>
<g>
</g>
<g>
</g>
<g>
</g>
<g>
</g>
<g>
</g>
<g>
</g>
<g>
</g>
<g>
</g>
<g>
</g>
<g>
</g>
<g>
</g>
<g>
</g>
<g>
</g>
</svg>
