<?xml version="1.0" encoding="iso-8859-1"?>
<!-- Generator: Adobe Illustrator 19.0.0, SVG Export Plug-In . SVG Version: 6.00 Build 0)  -->
<svg xmlns="http://www.w3.org/2000/svg" xmlns:xlink="http://www.w3.org/1999/xlink" version="1.1" id="Capa_1" x="0px" y="0px" viewBox="0 0 512 512" style="enable-background:new 0 0 512 512;" xml:space="preserve" width="512px" height="512px">
<g>
	<g>
		<path d="M482,196H30c-16.569,0-30,13.431-30,30c0,16.567,13.431,30,30,30h452c16.569,0,30-13.433,30-30    C512,209.431,498.569,196,482,196z" fill="#FFFFFF"/>
	</g>
</g>
<g>
	<g>
		<path d="M316,16H196C110.081,16,39.373,82.031,31.76,166h448.48C472.627,82.031,401.919,16,316,16z M211,106h-30V76h30V106z     M271,136h-30v-30h30V136z M331,106h-30V76h30V106z M391,136h-30v-30h30V136z" fill="#FFFFFF"/>
	</g>
</g>
<g>
	<g>
		<path d="M31,406v15c0,41.353,33.647,75,75,75h300c41.353,0,75-33.647,75-75v-15H31z" fill="#FFFFFF"/>
	</g>
</g>
<g>
	<g>
		<polygon points="105.989,286 165.985,366.01 225.995,286   " fill="#FFFFFF"/>
	</g>
</g>
<g>
	<g>
		<polygon points="256,296.005 196.002,376 315.996,376   " fill="#FFFFFF"/>
	</g>
</g>
<g>
	<g>
		<path d="M467,286h-23.507L376,376h91c24.853,0,45-20.147,45-45C512,306.147,491.853,286,467,286z" fill="#FFFFFF"/>
	</g>
</g>
<g>
	<g>
		<polygon points="286.004,286 346,365.995 406.005,286   " fill="#FFFFFF"/>
	</g>
</g>
<g>
	<g>
		<path d="M68.506,286H45c-24.853,0-45,20.147-45,45c0,24.853,20.147,45,45,45h90.982L68.506,286z" fill="#FFFFFF"/>
	</g>
</g>
<g>
</g>
<g>
</g>
<g>
</g>
<g>
</g>
<g>
</g>
<g>
</g>
<g>
</g>
<g>
</g>
<g>
</g>
<g>
</g>
<g>
</g>
<g>
</g>
<g>
</g>
<g>
</g>
<g>
</g>
</svg>
