<?xml version="1.0" encoding="iso-8859-1"?>
<!-- Generator: Adobe Illustrator 19.0.0, SVG Export Plug-In . SVG Version: 6.00 Build 0)  -->
<svg xmlns="http://www.w3.org/2000/svg" xmlns:xlink="http://www.w3.org/1999/xlink" version="1.1" id="Capa_1" x="0px" y="0px" viewBox="0 0 496 496" style="enable-background:new 0 0 496 496;" xml:space="preserve" width="512px" height="512px">
<g>
	<g>
		<path d="M64,72v-0.208C73.656,64.488,80,53.016,80,40C80,17.944,62.056,0,40,0C17.944,0,0,17.944,0,40    c0,13.016,6.344,24.488,16,31.792V496h16V79.192C34.584,79.72,37.264,80,40,80s5.416-0.28,8-0.808V496h16v-72h432V72H64z M312,88    h125.016L312,169.256V88z M232,88v81.256L106.984,88H232z M77.632,88L232,188.344V208h-13.632L64,107.656V88H77.632z M189.016,208    H64v-81.256L189.016,208z M40,64c-13.232,0-24-10.768-24-24s10.768-24,24-24s24,10.768,24,24S53.232,64,40,64z M232,408H106.992    L232,326.744V408z M232,307.656L77.624,408H64v-19.656l20.36-13.232l-8.72-13.424L64,369.256V288h125.008l-99.712,64.816    l8.72,13.424L218.376,288H232V307.656z M312,408v-81.256L437.008,408H312z M480,408h-13.624L312,307.656V288h13.624L480,388.344    V408z M480,272h-16v16h16v81.256L354.992,288H448v-16H296v136h-48V272H64v-48h184V88h48v136h184V272z M480,208H354.984    L480,126.744V208z M480,107.656L325.632,208H312v-19.656L466.368,88H480V107.656z" fill="#FFFFFF"/>
	</g>
</g>
<g>
</g>
<g>
</g>
<g>
</g>
<g>
</g>
<g>
</g>
<g>
</g>
<g>
</g>
<g>
</g>
<g>
</g>
<g>
</g>
<g>
</g>
<g>
</g>
<g>
</g>
<g>
</g>
<g>
</g>
</svg>
